<svg width="21" height="24" viewBox="0 0 21 24" fill="none" xmlns="http://www.w3.org/2000/svg"><path d="M20.1234 4.37719L16.6252 0.878438C16.0594 0.316031 15.2953 0 14.5031 0H7.5C5.84531 0 4.5 1.34297 4.5 3L4.50046 16.5C4.50046 18.1566 5.84343 19.5 7.50046 19.5H18.0005C19.65 19.5 21 18.15 21 16.5V6.49688C21 5.70469 20.6859 4.94062 20.1234 4.37719ZM18.75 16.5C18.75 16.9142 18.4142 17.25 18 17.25H7.5C7.08572 17.25 6.75 16.9142 6.75 16.5V3.00609C6.75 2.59191 7.08581 2.25609 7.5 2.25609H13.5V6C13.5 6.82828 14.1717 7.5 15 7.5H18.7495V16.5H18.75ZM15.375 24H5.625C2.52328 24 0 21.4781 0 18.375V5.625C0 5.00625 0.503906 4.5 1.125 4.5C1.74609 4.5 2.25 5.00625 2.25 5.625V18.375C2.25 20.2359 3.76406 21.75 5.625 21.75H15.375C15.9961 21.75 16.5 22.2539 16.5 22.875C16.5 23.4961 15.9984 24 15.375 24Z" fill="#929AA5"/></svg>