<svg width="18" height="18" viewBox="0 0 18 18" fill="none" xmlns="http://www.w3.org/2000/svg"><path d="M8.5043 16.875H5.0618C2.27109 16.875 0 14.6637 0 11.9426V8.14922C0 7.3248 0.214664 6.50637 0.620859 5.78215L1.72301 3.81867C2.26758 2.85117 3.33633 2.25 4.4332 2.25H6.08449C7.0207 2.25 7.89715 2.65887 8.48918 3.37254L9.03269 4.03031L13.5246 2.40609C13.8164 2.30133 14.1152 2.25176 14.4105 2.25176C15.4659 2.25176 16.4626 2.88668 16.8507 3.90727C17.4705 5.5125 16.3761 6.82031 15.3018 7.20352L15.2263 7.23036L15.5816 7.25625C16.9379 7.34766 18 8.47969 18 9.81914C18 11.2148 16.8304 12.3536 15.4013 12.3536C15.3399 12.3536 15.2782 12.3514 15.216 12.3471L12.0945 12.1314V12.4176C12.0945 13.1949 11.7236 13.9332 11.1084 14.4124C11.0602 15.7781 9.90703 16.875 8.5043 16.875ZM8.53945 15.1875C9.04359 15.1875 9.45352 14.7997 9.45352 14.322C9.45352 14.322 9.4521 13.8189 9.4521 13.8048C9.4521 13.5624 9.59631 13.3056 9.82722 13.2286C10.1925 13.1055 10.4382 12.7793 10.4382 12.4179V11.9422C10.4382 11.3453 9.95659 11.3657 9.95659 10.8914C9.95659 10.5721 10.2165 10.3303 10.5177 10.3303C10.5305 10.3303 10.5434 10.3308 10.5563 10.3316C10.5563 10.3316 15.4114 10.6658 15.4325 10.6658C15.9359 10.6658 16.3441 10.2777 16.3441 9.80482C16.3441 9.33795 15.9679 8.97021 15.4968 8.93857L9.75933 8.54201C9.66532 8.53539 9.2348 8.43981 9.2348 7.97318C9.2348 7.73851 9.38541 7.53092 9.60921 7.45111L14.7361 5.61445C14.998 5.48789 15.3292 5.25234 15.3292 4.80586C15.3292 4.41422 15.004 3.93891 14.4162 3.93891C14.3092 3.93891 14.2003 3.95689 14.0939 3.9948L5.86385 6.98414C5.80054 7.00728 5.73574 7.01825 5.67204 7.01825C5.35704 7.01825 5.10954 6.75893 5.10954 6.48739C5.10954 6.25838 5.25255 6.04125 5.48184 5.95864L7.76032 5.13352L7.22102 4.48102C6.91875 4.12383 6.51797 3.9375 6.08555 3.9375H4.43426C3.915 3.9375 3.44004 4.20887 3.1943 4.64625L2.0918 6.60938C1.82704 7.08082 1.6868 7.61344 1.6868 8.14957V11.9429C1.6868 13.7327 3.20063 15.1882 5.0618 15.1882H8.53945V15.1875Z" fill="#1E2329"/></svg>