<svg width="24" height="13" viewBox="0 0 24 13" fill="none" xmlns="http://www.w3.org/2000/svg"><path d="M0 6.6001C0 3.2851 2.68613 0.600098 6 0.600098H9.9C10.3988 0.600098 10.8 1.00135 10.8 1.5001C10.8 1.99885 10.3988 2.4001 9.9 2.4001H6C3.68025 2.4001 1.8 4.27885 1.8 6.6001C1.8 8.92135 3.68025 10.8001 6 10.8001H9.9C10.3988 10.8001 10.8 11.2013 10.8 11.7001C10.8 12.1988 10.3988 12.6001 9.9 12.6001H6C2.68613 12.6001 0 9.9151 0 6.6001ZM18 12.6001H14.1C13.6013 12.6001 13.2 12.1988 13.2 11.7001C13.2 11.2013 13.6013 10.8001 14.1 10.8001H18C20.3213 10.8001 22.2 8.92135 22.2 6.6001C22.2 4.27885 20.3213 2.4001 18 2.4001H14.1C13.6013 2.4001 13.2 1.99885 13.2 1.5001C13.2 1.00135 13.6013 0.600098 14.1 0.600098H18C21.315 0.600098 24 3.2851 24 6.6001C24 9.9151 21.315 12.6001 18 12.6001ZM15.9 5.7001C16.3988 5.7001 16.8 6.10135 16.8 6.6001C16.8 7.09885 16.3988 7.5001 15.9 7.5001H8.1C7.60125 7.5001 7.2 7.09885 7.2 6.6001C7.2 6.10135 7.60125 5.7001 8.1 5.7001H15.9Z" fill="#707A8A"/></svg>